<?xml version="1.0" encoding="UTF-8" standalone="no"?>
<!-- Created with Inkscape (http://www.inkscape.org/) -->

<svg
   xmlns:dc="http://purl.org/dc/elements/1.1/"
   xmlns:cc="http://creativecommons.org/ns#"
   xmlns:rdf="http://www.w3.org/1999/02/22-rdf-syntax-ns#"
   xmlns:svg="http://www.w3.org/2000/svg"
   xmlns="http://www.w3.org/2000/svg"
   xmlns:sodipodi="http://sodipodi.sourceforge.net/DTD/sodipodi-0.dtd"
   xmlns:inkscape="http://www.inkscape.org/namespaces/inkscape"
   width="210mm"
   height="297mm"
   viewBox="0 0 744.09448819 1052.3622047"
   id="svg3491"
   version="1.1"
   inkscape:version="0.91 r13725"
   inkscape:export-filename="C:\Users\Zetta\Desktop\ninjavsesmad\ninja_solo.png"
   inkscape:export-xdpi="90"
   inkscape:export-ydpi="90"
   sodipodi:docname="ninja_solo.svg">
  <defs
     id="defs3493" />
  <sodipodi:namedview
     id="base"
     pagecolor="#ffffff"
     bordercolor="#666666"
     borderopacity="1.0"
     inkscape:pageopacity="0.0"
     inkscape:pageshadow="2"
     inkscape:zoom="0.35"
     inkscape:cx="-152.14286"
     inkscape:cy="520"
     inkscape:document-units="px"
     inkscape:current-layer="layer1"
     showgrid="false"
     inkscape:window-width="1360"
     inkscape:window-height="716"
     inkscape:window-x="-8"
     inkscape:window-y="-8"
     inkscape:window-maximized="1" />
  <metadata
     id="metadata3496">
    <rdf:RDF>
      <cc:Work
         rdf:about="">
        <dc:format>image/svg+xml</dc:format>
        <dc:type
           rdf:resource="http://purl.org/dc/dcmitype/StillImage" />
        <dc:title></dc:title>
      </cc:Work>
    </rdf:RDF>
  </metadata>
  <g
     inkscape:label="Capa 1"
     inkscape:groupmode="layer"
     id="layer1">
    <g
       transform="matrix(9.8861814,0,0,9.87938,812.16414,1093.1717)"
       id="g3585">
      <g
         id="g3739"
         transform="translate(-43.622921,-14.048059)">
        <g
           style="fill:#2b0000"
           id="g3577"
           transform="translate(0,3.9e-6)">
          <path
             style="fill:#2b0000"
             inkscape:connector-curvature="0"
             id="path3579"
             d="m 7.35,-23 c 1.232,-1.434 2.75,-2.133 4.55,-2.1 1.866,-0.033 3.383,0.667 4.55,2.1 1.2,1.333 1.7,2.9 1.5,4.7 L 16.6,0 8.25,0 6.05,-18.3 c -0.133,-1.8 0.3,-3.367 1.3,-4.7 z" />
        </g>
        <g
           style="fill:#2b0000"
           id="g3581"
           transform="translate(0,3.9e-6)">
          <path
             style="fill:#2b0000"
             inkscape:connector-curvature="0"
             id="path3583"
             d="m -11.9,-25.1 c 1.8,-0.033 3.316,0.667 4.55,2.1 1,1.333 1.433,2.9 1.3,4.7 L -8.25,0 -16.6,0 -17.951,-18.3 c -0.199,-1.8 0.301,-3.367 1.5,-4.7 1.167,-1.434 2.684,-2.133 4.551,-2.1 z" />
        </g>
        <path
           style="fill:#2b0000"
           inkscape:connector-curvature="0"
           id="path3587"
           d="m 23.45,-21.9 c 0.1,-5.467 -2.184,-8.134 -6.85,-8 l 0,-9.2 0.3,0.1 c 7.899,3.1 11.75,8.833 11.55,17.2 -0.033,0.7 -0.283,1.284 -0.75,1.75 -0.5,0.467 -1.1,0.7 -1.8,0.7 -0.7,0 -1.283,-0.25 -1.75,-0.75 -0.467,-0.5 -0.7,-1.1 -0.7,-1.8 z" />
        <path
           style="fill:#2b0000"
           inkscape:connector-curvature="0"
           id="path3589"
           d="m -27.15,-20.1 c -0.467,0.5 -1.051,0.75 -1.75,0.75 -0.7,0 -1.301,-0.233 -1.801,-0.7 -0.467,-0.466 -0.717,-1.05 -0.75,-1.75 -0.199,-8.367 3.651,-14.1 11.551,-17.2 l 0.3,-0.1 0,9.2 c -4.667,-0.134 -6.95,2.533 -6.851,8 0,0.7 -0.233,1.3 -0.699,1.8 z" />
        <path
           style="fill:#2b0000"
           inkscape:connector-curvature="0"
           id="path3591"
           d="m -15.201,-77.4 c 4.2,-4.2 9.267,-6.3 15.2,-6.3 5.933,0 11,2.1 15.2,6.3 4.2,4.2 6.3,9.267 6.3,15.2 l 0,40.4 c 0,3.633 -2.1,6.733 -6.3,9.3 C 11,-9.967 5.933,-8.7 0,-8.7 c -5.933,0 -11,-1.267 -15.2,-3.8 -4.199,-2.567 -6.3,-5.667 -6.3,-9.3 l 0,-40.4 c 0,-5.933 2.1,-11 6.299,-15.2 z" />
        <path
           style="opacity:0.30199998;fill:#ffffff"
           inkscape:connector-curvature="0"
           id="path3595"
           d="m 18.1,-76.25 c 1.833,1.833 2.75,4.05 2.75,6.65 0,2.6 -0.917,4.816 -2.75,6.65 -1.834,1.833 -4.051,2.75 -6.65,2.75 -2.599,0 -4.816,-0.917 -6.65,-2.75 C 2.933,-64.784 2,-67 2,-69.6 c 0,-2.6 0.934,-4.817 2.8,-6.65 1.834,-1.867 4.051,-2.8 6.65,-2.8 2.599,0 4.816,0.933 6.65,2.8 z"
           enable-background="new    " />
        <path
           style="opacity:0.50199998;fill:#4d4d4d"
           inkscape:connector-curvature="0"
           id="path3601"
           d="m 15.9,-28.3 c 0.8,0 1.483,0.284 2.05,0.85 0.566,0.567 0.85,1.25 0.85,2.05 0,0.8 -0.283,1.483 -0.85,2.05 -0.566,0.566 -1.25,0.85 -2.05,0.85 -0.8,0 -1.483,-0.284 -2.05,-0.85 C 13.283,-23.917 13,-24.6 13,-25.4 c 0,-0.8 0.283,-1.483 0.851,-2.05 0.566,-0.567 1.249,-0.85 2.049,-0.85 z m -2.851,7.55 c 0.567,0 1.051,0.2 1.45,0.6 0.4,0.4 0.601,0.883 0.601,1.45 0,0.567 -0.2,1.05 -0.601,1.45 -0.399,0.4 -0.883,0.6 -1.45,0.6 -0.566,0 -1.05,-0.2 -1.449,-0.6 -0.4,-0.4 -0.6,-0.883 -0.6,-1.45 0,-0.566 0.2,-1.05 0.601,-1.45 0.399,-0.4 0.882,-0.6 1.448,-0.6 z M 4.2,-21.55 c 1.1,0 2.033,0.383 2.8,1.15 0.767,0.767 1.15,1.7 1.15,2.8 0,1.1 -0.384,2.033 -1.15,2.8 -0.766,0.767 -1.7,1.15 -2.8,1.15 -1.1,0 -2.033,-0.384 -2.8,-1.15 -0.767,-0.766 -1.15,-1.7 -1.15,-2.8 0,-1.1 0.384,-2.033 1.15,-2.8 0.767,-0.767 1.7,-1.15 2.8,-1.15 z"
           enable-background="new    " />
        <ellipse
           ry="3.8817005"
           rx="15.619224"
           cy="-52.948257"
           cx="0.99383742"
           id="path3716"
           style="fill:#4d4d4d" />
        <ellipse
           ry="1.4787431"
           rx="1.3863217"
           cy="-52.578575"
           cx="-3.9969192"
           id="path3718"
           style="fill:#ffffff" />
        <ellipse
           ry="1.4787431"
           rx="1.3863217"
           cy="-52.763409"
           cx="5.7073326"
           id="path3718-6"
           style="fill:#ffffff" />
      </g>
    </g>
  </g>
</svg>
